<svg width="300" height="300" viewBox="0 0 300 300" fill="none" xmlns="http://www.w3.org/2000/svg">
<path d="M0 0H150L254.5 48V247L150 300H0V0Z" fill="#FAEBD7"/>
<path d="M150 0C232.843 0 300 67.1573 300 150C300 232.843 232.843 300 150 300C150 143.5 150 226.343 150 143.5C150 60.6573 150 143.5 150 0Z" fill="black"/>
<circle cx="150" cy="150" r="50" transform="rotate(-90 150 150)" fill="#FFB801"/>
<path d="M46.168 57.336C43.704 57.336 41.496 56.936 39.544 56.136C37.592 55.336 36.024 54.152 34.84 52.584C33.688 51.016 33.08 49.128 33.016 46.92H41.752C41.88 48.168 42.312 49.128 43.048 49.8C43.784 50.44 44.744 50.76 45.928 50.76C47.144 50.76 48.104 50.488 48.808 49.944C49.512 49.368 49.864 48.584 49.864 47.592C49.864 46.76 49.576 46.072 49 45.528C48.456 44.984 47.768 44.536 46.936 44.184C46.136 43.832 44.984 43.432 43.48 42.984C41.304 42.312 39.528 41.64 38.152 40.968C36.776 40.296 35.592 39.304 34.6 37.992C33.608 36.68 33.112 34.968 33.112 32.856C33.112 29.72 34.248 27.272 36.52 25.512C38.792 23.72 41.752 22.824 45.4 22.824C49.112 22.824 52.104 23.72 54.376 25.512C56.648 27.272 57.864 29.736 58.024 32.904H49.144C49.08 31.816 48.68 30.968 47.944 30.36C47.208 29.72 46.264 29.4 45.112 29.4C44.12 29.4 43.32 29.672 42.712 30.216C42.104 30.728 41.8 31.48 41.8 32.472C41.8 33.56 42.312 34.408 43.336 35.016C44.36 35.624 45.96 36.28 48.136 36.984C50.312 37.72 52.072 38.424 53.416 39.096C54.792 39.768 55.976 40.744 56.968 42.024C57.96 43.304 58.456 44.952 58.456 46.968C58.456 48.888 57.96 50.632 56.968 52.2C56.008 53.768 54.6 55.016 52.744 55.944C50.888 56.872 48.696 57.336 46.168 57.336Z" fill="#AB222D"/>
<path d="M46.168 277.336C43.704 277.336 41.496 276.936 39.544 276.136C37.592 275.336 36.024 274.152 34.84 272.584C33.688 271.016 33.08 269.128 33.016 266.92H41.752C41.88 268.168 42.312 269.128 43.048 269.8C43.784 270.44 44.744 270.76 45.928 270.76C47.144 270.76 48.104 270.488 48.808 269.944C49.512 269.368 49.864 268.584 49.864 267.592C49.864 266.76 49.576 266.072 49 265.528C48.456 264.984 47.768 264.536 46.936 264.184C46.136 263.832 44.984 263.432 43.48 262.984C41.304 262.312 39.528 261.64 38.152 260.968C36.776 260.296 35.592 259.304 34.6 257.992C33.608 256.68 33.112 254.968 33.112 252.856C33.112 249.72 34.248 247.272 36.52 245.512C38.792 243.72 41.752 242.824 45.4 242.824C49.112 242.824 52.104 243.72 54.376 245.512C56.648 247.272 57.864 249.736 58.024 252.904H49.144C49.08 251.816 48.68 250.968 47.944 250.36C47.208 249.72 46.264 249.4 45.112 249.4C44.12 249.4 43.32 249.672 42.712 250.216C42.104 250.728 41.8 251.48 41.8 252.472C41.8 253.56 42.312 254.408 43.336 255.016C44.36 255.624 45.96 256.28 48.136 256.984C50.312 257.72 52.072 258.424 53.416 259.096C54.792 259.768 55.976 260.744 56.968 262.024C57.96 263.304 58.456 264.952 58.456 266.968C58.456 268.888 57.96 270.632 56.968 272.2C56.008 273.768 54.6 275.016 52.744 275.944C50.888 276.872 48.696 277.336 46.168 277.336Z" fill="#AB222D"/>
<path d="M42.184 102.88V109.696H53.176V116.032H42.184V123.424H54.616V130H33.976V96.304H54.616V102.88H42.184Z" fill="#AB222D"/>
<path d="M58.216 170.304V176.88H49.288V204H41.08V176.88H32.152V170.304H58.216Z" fill="#AB222D"/>
</svg>
